<?xml version="1.0" standalone="no"?>
<!DOCTYPE svg PUBLIC "-//W3C//DTD SVG 20010904//EN"
 "http://www.w3.org/TR/2001/REC-SVG-20010904/DTD/svg10.dtd">
<svg version="1.0" xmlns="http://www.w3.org/2000/svg"
 width="163.000000pt" height="163.000000pt" viewBox="0 0 163.000000 163.000000"
 preserveAspectRatio="xMidYMid meet">
<metadata>
Created by potrace 1.11, written by Peter Selinger 2001-2013
</metadata>
<g transform="translate(0.000000,163.000000) scale(0.100000,-0.100000)"
fill="#000000" stroke="none">
<path d="M700 1560 c0 -5 -9 -10 -20 -10 -11 0 -20 -4 -20 -10 0 -5 -9 -10
-20 -10 -11 0 -20 -4 -20 -10 0 -5 -7 -10 -15 -10 -20 0 -105 -85 -105 -105 0
-8 -4 -15 -10 -15 -5 0 -10 -18 -10 -40 0 -22 -4 -40 -10 -40 -6 0 -10 -33
-10 -80 0 -47 4 -80 10 -80 6 0 10 -9 10 -20 0 -11 5 -20 10 -20 6 0 10 -9 10
-20 0 -11 5 -20 10 -20 6 0 10 -9 10 -20 0 -11 5 -20 10 -20 6 0 10 -7 10 -16
0 -9 14 -29 30 -44 33 -31 37 -45 16 -66 -16 -16 -86 -19 -86 -4 0 6 -18 10
-40 10 -22 0 -40 5 -40 10 0 6 -9 10 -20 10 -11 0 -20 5 -20 10 0 6 -7 10 -15
10 -20 0 -105 85 -105 105 0 8 -4 15 -10 15 -5 0 -10 9 -10 20 0 11 -4 20 -10
20 -5 0 -10 18 -10 40 0 22 -4 40 -10 40 -6 0 -10 30 -10 70 0 40 4 70 10 70
6 0 10 9 10 20 0 11 5 20 10 20 6 0 10 9 10 20 0 11 -3 20 -6 20 -11 0 -34
-29 -34 -44 0 -9 -4 -16 -10 -16 -5 0 -10 -9 -10 -20 0 -11 -4 -20 -10 -20 -5
0 -10 -9 -10 -20 0 -11 -4 -20 -10 -20 -6 0 -10 -33 -10 -80 0 -47 4 -80 10
-80 6 0 10 -13 10 -30 0 -16 5 -30 10 -30 6 0 10 -9 10 -20 0 -11 5 -20 10
-20 6 0 10 -9 10 -20 0 -11 5 -20 10 -20 6 0 10 -7 10 -15 0 -19 124 -145 143
-145 7 0 19 -9 27 -20 8 -11 22 -20 32 -20 10 0 18 -4 18 -10 0 -5 14 -10 30
-10 17 0 30 -4 30 -10 0 -5 16 -10 36 -10 35 0 64 -18 64 -40 0 -16 -107 -120
-125 -120 -8 0 -15 -4 -15 -10 0 -5 -9 -10 -20 -10 -11 0 -20 -4 -20 -10 0 -6
-27 -10 -60 -10 -33 0 -60 4 -60 10 0 6 -13 10 -30 10 -16 0 -30 5 -30 10 0 6
-7 10 -15 10 -18 0 -125 104 -125 120 0 12 -24 40 -34 40 -3 0 -6 -9 -6 -20 0
-11 5 -20 10 -20 6 0 10 -9 10 -20 0 -11 5 -20 10 -20 6 0 10 -9 10 -20 0 -11
5 -20 10 -20 6 0 10 -7 10 -15 0 -20 85 -105 105 -105 8 0 15 -4 15 -10 0 -5
18 -10 40 -10 22 0 40 -4 40 -10 0 -6 33 -10 80 -10 47 0 80 4 80 10 0 6 9 10
20 10 11 0 20 5 20 10 0 6 9 10 20 10 11 0 20 5 20 10 0 6 9 10 20 10 11 0 20
5 20 10 0 6 7 10 16 10 9 0 29 14 44 30 31 33 45 37 66 16 16 -16 19 -86 4
-86 -5 0 -10 -18 -10 -40 0 -22 -4 -40 -10 -40 -5 0 -10 -9 -10 -20 0 -11 -4
-20 -10 -20 -5 0 -10 -7 -10 -15 0 -20 -85 -105 -105 -105 -8 0 -15 -4 -15
-10 0 -5 -9 -10 -20 -10 -11 0 -20 -4 -20 -10 0 -5 -18 -10 -40 -10 -22 0 -40
-4 -40 -10 0 -6 -30 -10 -70 -10 -40 0 -70 4 -70 10 0 6 -9 10 -20 10 -11 0
-20 5 -20 10 0 6 -9 10 -20 10 -11 0 -20 -3 -20 -6 0 -11 29 -34 44 -34 9 0
16 -4 16 -10 0 -5 9 -10 20 -10 11 0 20 -4 20 -10 0 -5 9 -10 20 -10 11 0 20
-4 20 -10 0 -6 33 -10 80 -10 47 0 80 4 80 10 0 6 14 10 30 10 17 0 30 5 30
10 0 6 9 10 20 10 11 0 20 5 20 10 0 6 9 10 20 10 11 0 20 5 20 10 0 6 7 10
15 10 19 0 145 124 145 143 0 7 9 19 20 27 11 8 20 22 20 32 0 10 5 18 10 18
6 0 10 14 10 30 0 17 5 30 10 30 6 0 10 16 10 36 0 35 18 64 40 64 16 0 120
-107 120 -125 0 -8 5 -15 10 -15 6 0 10 -9 10 -20 0 -11 5 -20 10 -20 6 0 10
-27 10 -60 0 -33 -4 -60 -10 -60 -5 0 -10 -13 -10 -30 0 -16 -4 -30 -10 -30
-5 0 -10 -7 -10 -15 0 -18 -104 -125 -120 -125 -12 0 -40 -24 -40 -34 0 -3 9
-6 20 -6 11 0 20 5 20 10 0 6 9 10 20 10 11 0 20 5 20 10 0 6 9 10 20 10 11 0
20 5 20 10 0 6 7 10 15 10 20 0 105 85 105 105 0 8 5 15 10 15 6 0 10 18 10
40 0 22 5 40 10 40 6 0 10 33 10 80 0 47 -4 80 -10 80 -5 0 -10 9 -10 20 0 11
-4 20 -10 20 -5 0 -10 9 -10 20 0 11 -4 20 -10 20 -5 0 -10 9 -10 20 0 11 -4
20 -10 20 -5 0 -10 7 -10 16 0 9 -13 29 -30 44 -33 31 -37 45 -16 66 16 16 86
19 86 4 0 -5 18 -10 40 -10 22 0 40 -4 40 -10 0 -5 9 -10 20 -10 11 0 20 -4
20 -10 0 -5 7 -10 15 -10 20 0 105 -85 105 -105 0 -8 5 -15 10 -15 6 0 10 -9
10 -20 0 -11 5 -20 10 -20 6 0 10 -18 10 -40 0 -22 5 -40 10 -40 6 0 10 -30
10 -70 0 -40 -4 -70 -10 -70 -5 0 -10 -9 -10 -20 0 -11 -4 -20 -10 -20 -5 0
-10 -9 -10 -20 0 -11 3 -20 6 -20 11 0 34 29 34 44 0 9 5 16 10 16 6 0 10 9
10 20 0 11 5 20 10 20 6 0 10 9 10 20 0 11 5 20 10 20 6 0 10 33 10 80 0 47
-4 80 -10 80 -5 0 -10 14 -10 30 0 17 -4 30 -10 30 -5 0 -10 9 -10 20 0 11 -4
20 -10 20 -5 0 -10 9 -10 20 0 11 -4 20 -10 20 -5 0 -10 7 -10 15 0 19 -124
145 -143 145 -7 0 -19 9 -27 20 -8 11 -22 20 -32 20 -10 0 -18 5 -18 10 0 6
-13 10 -30 10 -16 0 -30 5 -30 10 0 6 -16 10 -36 10 -35 0 -64 18 -64 40 0 16
107 120 125 120 8 0 15 5 15 10 0 6 9 10 20 10 11 0 20 5 20 10 0 6 27 10 60
10 33 0 60 -4 60 -10 0 -5 14 -10 30 -10 17 0 30 -4 30 -10 0 -5 7 -10 15 -10
18 0 125 -104 125 -120 0 -12 24 -40 34 -40 3 0 6 9 6 20 0 11 -4 20 -10 20
-5 0 -10 9 -10 20 0 11 -4 20 -10 20 -5 0 -10 9 -10 20 0 11 -4 20 -10 20 -5
0 -10 7 -10 15 0 20 -85 105 -105 105 -8 0 -15 5 -15 10 0 6 -18 10 -40 10
-22 0 -40 5 -40 10 0 6 -33 10 -80 10 -47 0 -80 -4 -80 -10 0 -5 -9 -10 -20
-10 -11 0 -20 -4 -20 -10 0 -5 -9 -10 -20 -10 -11 0 -20 -4 -20 -10 0 -5 -9
-10 -20 -10 -11 0 -20 -4 -20 -10 0 -5 -7 -10 -16 -10 -9 0 -29 -13 -44 -30
-31 -33 -45 -37 -66 -16 -16 16 -19 86 -4 86 6 0 10 18 10 40 0 22 5 40 10 40
6 0 10 9 10 20 0 11 5 20 10 20 6 0 10 7 10 15 0 20 85 105 105 105 8 0 15 5
15 10 0 6 9 10 20 10 11 0 20 5 20 10 0 6 18 10 40 10 22 0 40 5 40 10 0 6 30
10 70 10 40 0 70 -4 70 -10 0 -5 9 -10 20 -10 11 0 20 -4 20 -10 0 -5 9 -10
20 -10 11 0 20 3 20 6 0 11 -29 34 -44 34 -9 0 -16 5 -16 10 0 6 -9 10 -20 10
-11 0 -20 5 -20 10 0 6 -9 10 -20 10 -11 0 -20 5 -20 10 0 6 -33 10 -80 10
-47 0 -80 -4 -80 -10 0 -5 -13 -10 -30 -10 -16 0 -30 -4 -30 -10 0 -5 -9 -10
-20 -10 -11 0 -20 -4 -20 -10 0 -5 -9 -10 -20 -10 -11 0 -20 -4 -20 -10 0 -5
-7 -10 -15 -10 -19 0 -145 -124 -145 -143 0 -7 -9 -19 -20 -27 -11 -8 -20 -22
-20 -32 0 -10 -4 -18 -10 -18 -5 0 -10 -13 -10 -30 0 -16 -4 -30 -10 -30 -5 0
-10 -16 -10 -36 0 -35 -18 -64 -40 -64 -16 0 -120 107 -120 125 0 8 -4 15 -10
15 -5 0 -10 9 -10 20 0 11 -4 20 -10 20 -6 0 -10 27 -10 60 0 33 4 60 10 60 6
0 10 14 10 30 0 17 5 30 10 30 6 0 10 7 10 15 0 18 104 125 120 125 12 0 40
24 40 34 0 3 -9 6 -20 6 -11 0 -20 -4 -20 -10z"/>
</g>
</svg>
